<svg width="408" height="45" viewBox="0 0 408 45" fill="none" xmlns="http://www.w3.org/2000/svg">
<path d="M91.7928 2.53012C97.1777 2.53012 101.397 3.81526 104.451 6.38554C107.505 8.95582 109.032 12.49 109.032 16.988C109.032 21.4859 107.505 25.0201 104.451 27.5904C101.397 30.1205 97.1777 31.3855 91.7928 31.3855H80.4606V44.6988H76V2.53012H91.7928ZM91.6723 27.4699C95.8516 27.4699 99.0463 26.5663 101.256 24.759C103.467 22.9116 104.572 20.3213 104.572 16.988C104.572 13.5743 103.467 10.9639 101.256 9.15663C99.0463 7.30924 95.8516 6.38554 91.6723 6.38554H80.4606V27.4699H91.6723Z" fill="black"/>
<path d="M146.53 13.012V44.6988H142.431V38.4337C141.145 40.5622 139.437 42.1888 137.307 43.3133C135.218 44.4378 132.847 45 130.195 45C127.221 45 124.529 44.3173 122.117 42.9518C119.706 41.5863 117.818 39.6787 116.451 37.2289C115.085 34.7791 114.402 31.988 114.402 28.8554C114.402 25.7229 115.085 22.9317 116.451 20.4819C117.818 18.0321 119.706 16.1446 122.117 14.8193C124.529 13.4538 127.221 12.7711 130.195 12.7711C132.767 12.7711 135.077 13.3133 137.127 14.3976C139.216 15.4418 140.924 16.988 142.25 19.0361V13.012H146.53ZM130.556 41.2048C132.767 41.2048 134.756 40.7028 136.524 39.6988C138.332 38.6546 139.739 37.1888 140.743 35.3012C141.788 33.4137 142.311 31.2651 142.311 28.8554C142.311 26.4458 141.788 24.2972 140.743 22.4096C139.739 20.5221 138.332 19.0763 136.524 18.0723C134.756 17.0281 132.767 16.506 130.556 16.506C128.306 16.506 126.277 17.0281 124.468 18.0723C122.7 19.0763 121.294 20.5221 120.249 22.4096C119.244 24.2972 118.742 26.4458 118.742 28.8554C118.742 31.2651 119.244 33.4137 120.249 35.3012C121.294 37.1888 122.7 38.6546 124.468 39.6988C126.277 40.7028 128.306 41.2048 130.556 41.2048Z" fill="black"/>
<path d="M174.061 42.7711C173.257 43.494 172.273 44.0562 171.107 44.4578C169.942 44.8193 168.716 45 167.43 45C164.457 45 162.166 44.1968 160.559 42.5904C158.951 40.9839 158.148 38.7149 158.148 35.7831V6.08434H162.427V13.012H172.012V16.6265H162.427V35.5422C162.427 37.4297 162.889 38.8755 163.814 39.8795C164.738 40.8434 166.084 41.3253 167.852 41.3253C169.781 41.3253 171.349 40.7831 172.554 39.6988L174.061 42.7711Z" fill="black"/>
<path d="M197.973 12.7711C201.951 12.7711 205.106 13.9357 207.437 16.2651C209.808 18.5542 210.993 21.9076 210.993 26.3253V44.6988H206.713V26.747C206.713 23.4538 205.89 20.9438 204.242 19.2169C202.594 17.49 200.244 16.6265 197.189 16.6265C193.774 16.6265 191.061 17.6506 189.052 19.6988C187.083 21.7068 186.098 24.498 186.098 28.0723V44.6988H181.819V0H186.098V18.5542C187.264 16.7068 188.871 15.2811 190.921 14.2771C192.97 13.2731 195.321 12.7711 197.973 12.7711Z" fill="black"/>
<path d="M239.912 6.14458C235.773 6.14458 232.679 7.08835 230.629 8.9759C228.62 10.8233 227.615 13.5141 227.615 17.0482V22.9518H247.748V26.8072H227.615V44.6988H223.155V16.988C223.155 12.3695 224.601 8.75502 227.495 6.14458C230.388 3.49398 234.467 2.16868 239.731 2.16868C244.835 2.16868 248.934 3.27309 252.028 5.48193L250.4 9.15663C247.668 7.14859 244.172 6.14458 239.912 6.14458Z" fill="black"/>
<path d="M257.696 13.012H261.976V44.6988H257.696V13.012ZM259.866 6.08434C258.982 6.08434 258.238 5.78313 257.636 5.18072C257.033 4.57832 256.731 3.85542 256.731 3.01205C256.731 2.20884 257.033 1.50602 257.636 0.903614C258.238 0.301205 258.982 0 259.866 0C260.75 0 261.493 0.301205 262.096 0.903614C262.699 1.46586 263 2.14859 263 2.95181C263 3.83534 262.699 4.57832 262.096 5.18072C261.493 5.78313 260.75 6.08434 259.866 6.08434Z" fill="black"/>
<path d="M290.038 12.7711C294.017 12.7711 297.171 13.9357 299.502 16.2651C301.873 18.5542 303.058 21.9076 303.058 26.3253V44.6988H298.779V26.747C298.779 23.4538 297.955 20.9438 296.307 19.2169C294.66 17.49 292.309 16.6265 289.255 16.6265C285.839 16.6265 283.126 17.6506 281.117 19.6988C279.148 21.7068 278.164 24.498 278.164 28.0723V44.6988H273.884V13.012H277.983V18.8554C279.148 16.9277 280.755 15.4418 282.805 14.3976C284.895 13.3133 287.306 12.7711 290.038 12.7711Z" fill="black"/>
<path d="M343.729 0V44.6988H339.63V38.4337C338.344 40.5622 336.636 42.1888 334.506 43.3133C332.416 44.4378 330.045 45 327.393 45C324.42 45 321.727 44.3173 319.316 42.9518C316.905 41.5863 315.016 39.6787 313.65 37.2289C312.284 34.7791 311.6 31.988 311.6 28.8554C311.6 25.7229 312.284 22.9317 313.65 20.4819C315.016 18.0321 316.905 16.1446 319.316 14.8193C321.727 13.4538 324.42 12.7711 327.393 12.7711C329.965 12.7711 332.276 13.3133 334.325 14.3976C336.415 15.4418 338.123 16.988 339.449 19.0361V0H343.729ZM327.755 41.2048C329.965 41.2048 331.954 40.7028 333.722 39.6988C335.531 38.6546 336.937 37.1888 337.942 35.3012C338.987 33.4137 339.509 31.2651 339.509 28.8554C339.509 26.4458 338.987 24.2972 337.942 22.4096C336.937 20.5221 335.531 19.0763 333.722 18.0723C331.954 17.0281 329.965 16.506 327.755 16.506C325.505 16.506 323.475 17.0281 321.667 18.0723C319.899 19.0763 318.492 20.5221 317.447 22.4096C316.443 24.2972 315.94 26.4458 315.94 28.8554C315.94 31.2651 316.443 33.4137 317.447 35.3012C318.492 37.1888 319.899 38.6546 321.667 39.6988C323.475 40.7028 325.505 41.2048 327.755 41.2048Z" fill="black"/>
<path d="M369.21 41.2048C371.179 41.2048 372.988 40.8635 374.635 40.1807C376.323 39.4578 377.75 38.4137 378.915 37.0482L381.326 39.8193C379.92 41.506 378.171 42.7912 376.082 43.6747C373.992 44.5582 371.682 45 369.15 45C365.895 45 363.002 44.3173 360.47 42.9518C357.938 41.5462 355.969 39.6185 354.563 37.1687C353.156 34.7189 352.453 31.9478 352.453 28.8554C352.453 25.7631 353.116 22.992 354.442 20.5422C355.808 18.0924 357.677 16.1847 360.048 14.8193C362.419 13.4538 365.111 12.7711 368.125 12.7711C370.938 12.7711 373.47 13.4137 375.72 14.6988C378.011 15.9839 379.819 17.7711 381.145 20.0602C382.511 22.3494 383.235 24.9598 383.315 27.8916L357.275 32.9518C358.079 35.5221 359.525 37.5502 361.615 39.0361C363.745 40.4819 366.277 41.2048 369.21 41.2048ZM368.125 16.4458C365.915 16.4458 363.926 16.9679 362.158 18.012C360.43 19.0161 359.063 20.4418 358.059 22.2892C357.094 24.0964 356.612 26.1847 356.612 28.5542C356.612 29.1566 356.632 29.5984 356.672 29.8795L379.035 25.5422C378.553 22.8916 377.328 20.7229 375.359 19.0361C373.389 17.3092 370.978 16.4458 368.125 16.4458Z" fill="black"/>
<path d="M396.125 19.2169C397.13 17.0884 398.617 15.4819 400.586 14.3976C402.595 13.3133 405.066 12.7711 408 12.7711V16.9277L406.975 16.8675C403.64 16.8675 401.028 17.8916 399.139 19.9398C397.25 21.988 396.306 24.8594 396.306 28.5542V44.6988H392.026V13.012H396.125V19.2169Z" fill="black"/>
<rect y="24" width="24" height="21" rx="8" fill="#D9D9D9"/>
<rect x="40" width="24" height="21" rx="8" fill="#D9D9D9"/>
<rect x="28" y="24" width="24" height="21" rx="8" fill="#D9D9D9"/>
<rect x="28" y="24" width="36" height="21" rx="8" fill="#6B53E4"/>
<rect width="36" height="21" rx="8" fill="#E4C953"/>
</svg>
