<svg width="1057" height="157" viewBox="0 0 1057 157" fill="none" xmlns="http://www.w3.org/2000/svg">
<path d="M0.642045 154V8.54545H58.0284C69.0606 8.54545 78.4593 10.6525 86.2244 14.8665C93.9896 19.0331 99.9081 24.8333 103.98 32.267C108.099 39.6534 110.159 48.1761 110.159 57.8352C110.159 67.4943 108.076 76.017 103.909 83.4034C99.7424 90.7898 93.7055 96.5426 85.7983 100.662C77.9384 104.781 68.4214 106.841 57.2472 106.841H20.6705V82.196H52.2756C58.1941 82.196 63.071 81.178 66.9062 79.142C70.7888 77.0587 73.6771 74.1941 75.571 70.5483C77.5123 66.8551 78.483 62.6174 78.483 57.8352C78.483 53.0057 77.5123 48.7917 75.571 45.1932C73.6771 41.5473 70.7888 38.7301 66.9062 36.7415C63.0237 34.7055 58.0994 33.6875 52.1335 33.6875H31.3949V154H0.642045ZM157.744 156.06C150.784 156.06 144.581 154.852 139.136 152.438C133.691 149.975 129.383 146.353 126.21 141.571C123.085 136.741 121.523 130.728 121.523 123.531C121.523 117.471 122.635 112.381 124.861 108.261C127.086 104.142 130.116 100.828 133.952 98.3182C137.787 95.8087 142.143 93.9148 147.02 92.6364C151.944 91.358 157.105 90.4583 162.503 89.9375C168.848 89.2746 173.961 88.6591 177.844 88.0909C181.726 87.4754 184.544 86.5758 186.295 85.392C188.047 84.2083 188.923 82.4564 188.923 80.1364V79.7102C188.923 75.2121 187.503 71.732 184.662 69.2699C181.868 66.8078 177.891 65.5767 172.73 65.5767C167.285 65.5767 162.953 66.7841 159.733 69.1989C156.513 71.5663 154.383 74.5492 153.341 78.1477L125.358 75.875C126.778 69.2462 129.572 63.517 133.739 58.6875C137.905 53.8106 143.279 50.0701 149.861 47.4659C156.49 44.8144 164.16 43.4886 172.872 43.4886C178.933 43.4886 184.733 44.1989 190.273 45.6193C195.86 47.0398 200.808 49.2415 205.116 52.2244C209.473 55.2074 212.905 59.0426 215.415 63.7301C217.924 68.3703 219.179 73.9337 219.179 80.4205V154H190.486V138.872H189.634C187.882 142.281 185.538 145.288 182.602 147.892C179.667 150.449 176.139 152.461 172.02 153.929C167.901 155.349 163.142 156.06 157.744 156.06ZM166.409 135.179C170.86 135.179 174.79 134.303 178.199 132.551C181.608 130.752 184.283 128.337 186.224 125.307C188.166 122.277 189.136 118.844 189.136 115.009V103.432C188.189 104.047 186.887 104.616 185.23 105.136C183.62 105.61 181.797 106.06 179.761 106.486C177.725 106.865 175.689 107.22 173.653 107.551C171.617 107.835 169.771 108.096 168.114 108.332C164.563 108.853 161.461 109.682 158.81 110.818C156.158 111.955 154.098 113.493 152.631 115.435C151.163 117.329 150.429 119.696 150.429 122.537C150.429 126.656 151.92 129.805 154.903 131.983C157.934 134.114 161.769 135.179 166.409 135.179ZM300.678 44.9091V67.6364H234.982V44.9091H300.678ZM249.896 18.7727H280.152V120.477C280.152 123.271 280.578 125.449 281.43 127.011C282.283 128.527 283.466 129.592 284.982 130.207C286.544 130.823 288.343 131.131 290.379 131.131C291.8 131.131 293.22 131.012 294.641 130.776C296.061 130.491 297.15 130.278 297.908 130.136L302.666 152.651C301.151 153.124 299.02 153.669 296.274 154.284C293.528 154.947 290.19 155.349 286.26 155.491C278.968 155.776 272.576 154.805 267.084 152.58C261.639 150.354 257.401 146.898 254.371 142.21C251.34 137.523 249.849 131.604 249.896 124.455V18.7727ZM352.986 90.9318V154H322.73V8.54545H352.134V64.1562H353.412C355.874 57.7169 359.851 52.6742 365.344 49.0284C370.836 45.3352 377.725 43.4886 386.011 43.4886C393.587 43.4886 400.192 45.1458 405.827 48.4602C411.509 51.7273 415.912 56.4384 419.037 62.5938C422.209 68.7017 423.772 76.017 423.724 84.5398V154H393.469V89.9375C393.516 83.214 391.812 77.982 388.355 74.2415C384.946 70.5009 380.164 68.6307 374.009 68.6307C369.889 68.6307 366.243 69.5066 363.071 71.2585C359.946 73.0104 357.484 75.5672 355.685 78.929C353.933 82.2434 353.033 86.2443 352.986 90.9318Z" fill="#EDE2E8"/>
<path d="M448.103 154V8.54545H544.41V33.9006H478.856V68.5597H538.018V93.9148H478.856V154H448.103ZM564.527 154V44.9091H594.783V154H564.527ZM579.726 30.8466C575.228 30.8466 571.369 29.3551 568.149 26.3722C564.977 23.3419 563.391 19.7197 563.391 15.5057C563.391 11.339 564.977 7.7642 568.149 4.78125C571.369 1.75094 575.228 0.235788 579.726 0.235788C584.224 0.235788 588.059 1.75094 591.232 4.78125C594.451 7.7642 596.061 11.339 596.061 15.5057C596.061 19.7197 594.451 23.3419 591.232 26.3722C588.059 29.3551 584.224 30.8466 579.726 30.8466ZM649.275 90.9318V154H619.019V44.9091H647.854V64.1562H649.133C651.548 57.8116 655.596 52.7926 661.278 49.0994C666.96 45.3589 673.849 43.4886 681.945 43.4886C689.521 43.4886 696.126 45.1458 701.761 48.4602C707.395 51.7746 711.775 56.5095 714.9 62.6648C718.025 68.7727 719.587 76.0644 719.587 84.5398V154H689.332V89.9375C689.379 83.2614 687.674 78.053 684.218 74.3125C680.762 70.5246 676.003 68.6307 669.942 68.6307C665.871 68.6307 662.272 69.5066 659.147 71.2585C656.069 73.0104 653.655 75.5672 651.903 78.929C650.198 82.2434 649.322 86.2443 649.275 90.9318ZM783.632 155.776C775.346 155.776 767.841 153.645 761.118 149.384C754.442 145.075 749.139 138.754 745.209 130.42C741.326 122.04 739.385 111.765 739.385 99.5966C739.385 87.0966 741.397 76.7036 745.422 68.4176C749.446 60.0843 754.797 53.858 761.473 49.7386C768.196 45.572 775.559 43.4886 783.561 43.4886C789.669 43.4886 794.759 44.5303 798.831 46.6136C802.95 48.6496 806.265 51.2064 808.774 54.2841C811.331 57.3144 813.272 60.2973 814.598 63.233H815.521V8.54545H845.706V154H815.876V136.528H814.598C813.178 139.559 811.165 142.565 808.561 145.548C806.004 148.484 802.666 150.922 798.547 152.864C794.475 154.805 789.503 155.776 783.632 155.776ZM793.22 131.699C798.097 131.699 802.216 130.373 805.578 127.722C808.987 125.023 811.591 121.259 813.391 116.429C815.237 111.599 816.161 105.941 816.161 99.4545C816.161 92.9678 815.261 87.3333 813.462 82.5511C811.662 77.7689 809.058 74.0758 805.649 71.4716C802.24 68.8674 798.097 67.5653 793.22 67.5653C788.249 67.5653 784.058 68.9148 780.649 71.6136C777.24 74.3125 774.66 78.053 772.908 82.8352C771.156 87.6174 770.28 93.1572 770.28 99.4545C770.28 105.799 771.156 111.41 772.908 116.287C774.707 121.116 777.287 124.904 780.649 127.651C784.058 130.349 788.249 131.699 793.22 131.699ZM920.298 156.131C909.076 156.131 899.417 153.858 891.32 149.312C883.271 144.72 877.068 138.233 872.712 129.852C868.356 121.424 866.178 111.457 866.178 99.9517C866.178 88.7301 868.356 78.8816 872.712 70.4062C877.068 61.9309 883.2 55.3258 891.107 50.5909C899.062 45.8561 908.389 43.4886 919.09 43.4886C926.287 43.4886 932.987 44.6487 939.19 46.9688C945.44 49.2415 950.885 52.6742 955.525 57.267C960.212 61.8598 963.858 67.6364 966.462 74.5966C969.067 81.5095 970.369 89.6061 970.369 98.8864V107.196H878.252V88.446H941.888C941.888 84.09 940.942 80.2311 939.048 76.8693C937.154 73.5076 934.526 70.8797 931.164 68.9858C927.85 67.0445 923.991 66.0739 919.587 66.0739C914.995 66.0739 910.923 67.1392 907.371 69.2699C903.868 71.3532 901.121 74.1705 899.133 77.7216C897.144 81.2254 896.126 85.1316 896.079 89.4403V107.267C896.079 112.665 897.073 117.329 899.062 121.259C901.098 125.188 903.962 128.219 907.656 130.349C911.349 132.48 915.728 133.545 920.795 133.545C924.156 133.545 927.234 133.072 930.028 132.125C932.821 131.178 935.212 129.758 937.201 127.864C939.19 125.97 940.705 123.65 941.746 120.903L969.729 122.75C968.309 129.473 965.397 135.345 960.994 140.364C956.638 145.335 951.003 149.218 944.09 152.011C937.225 154.758 929.294 156.131 920.298 156.131ZM990.113 154V44.9091H1019.45V63.9432H1020.58C1022.57 57.1723 1025.91 52.0587 1030.6 48.6023C1035.28 45.0985 1040.68 43.3466 1046.79 43.3466C1048.3 43.3466 1049.94 43.4413 1051.69 43.6307C1053.44 43.8201 1054.98 44.0805 1056.31 44.4119V71.2585C1054.89 70.8324 1052.92 70.4536 1050.41 70.1222C1047.9 69.7907 1045.61 69.625 1043.52 69.625C1039.07 69.625 1035.09 70.5956 1031.59 72.5369C1028.13 74.4309 1025.39 77.0824 1023.35 80.4915C1021.36 83.9006 1020.37 87.8305 1020.37 92.2812V154H990.113Z" fill="#DDB6C6"/>
</svg>
