<svg width="1253" height="242" viewBox="0 0 1253 242" fill="none" xmlns="http://www.w3.org/2000/svg">
<path d="M193.642 194V48.5455H251.028C262.061 48.5455 271.459 50.6525 279.224 54.8665C286.99 59.0331 292.908 64.8333 296.98 72.267C301.099 79.6534 303.159 88.1761 303.159 97.8352C303.159 107.494 301.076 116.017 296.909 123.403C292.742 130.79 286.705 136.543 278.798 140.662C270.938 144.781 261.421 146.841 250.247 146.841H213.67V122.196H245.276C251.194 122.196 256.071 121.178 259.906 119.142C263.789 117.059 266.677 114.194 268.571 110.548C270.512 106.855 271.483 102.617 271.483 97.8352C271.483 93.0057 270.512 88.7917 268.571 85.1932C266.677 81.5473 263.789 78.7301 259.906 76.7415C256.024 74.7055 251.099 73.6875 245.134 73.6875H224.395V194H193.642ZM350.744 196.06C343.784 196.06 337.581 194.852 332.136 192.438C326.691 189.975 322.383 186.353 319.21 181.571C316.085 176.741 314.523 170.728 314.523 163.531C314.523 157.471 315.635 152.381 317.861 148.261C320.086 144.142 323.116 140.828 326.952 138.318C330.787 135.809 335.143 133.915 340.02 132.636C344.944 131.358 350.105 130.458 355.503 129.938C361.848 129.275 366.961 128.659 370.844 128.091C374.726 127.475 377.544 126.576 379.295 125.392C381.047 124.208 381.923 122.456 381.923 120.136V119.71C381.923 115.212 380.503 111.732 377.662 109.27C374.868 106.808 370.891 105.577 365.73 105.577C360.285 105.577 355.953 106.784 352.733 109.199C349.513 111.566 347.383 114.549 346.341 118.148L318.358 115.875C319.778 109.246 322.572 103.517 326.739 98.6875C330.905 93.8106 336.279 90.0701 342.861 87.4659C349.49 84.8144 357.16 83.4886 365.872 83.4886C371.933 83.4886 377.733 84.1989 383.273 85.6193C388.86 87.0398 393.808 89.2415 398.116 92.2244C402.473 95.2074 405.905 99.0426 408.415 103.73C410.924 108.37 412.179 113.934 412.179 120.42V194H383.486V178.872H382.634C380.882 182.281 378.538 185.288 375.602 187.892C372.667 190.449 369.139 192.461 365.02 193.929C360.901 195.349 356.142 196.06 350.744 196.06ZM359.409 175.179C363.86 175.179 367.79 174.303 371.199 172.551C374.608 170.752 377.283 168.337 379.224 165.307C381.166 162.277 382.136 158.844 382.136 155.009V143.432C381.189 144.047 379.887 144.616 378.23 145.136C376.62 145.61 374.797 146.06 372.761 146.486C370.725 146.865 368.689 147.22 366.653 147.551C364.617 147.835 362.771 148.096 361.114 148.332C357.563 148.853 354.461 149.682 351.81 150.818C349.158 151.955 347.098 153.493 345.631 155.435C344.163 157.329 343.429 159.696 343.429 162.537C343.429 166.656 344.92 169.805 347.903 171.983C350.934 174.114 354.769 175.179 359.409 175.179ZM493.678 84.9091V107.636H427.982V84.9091H493.678ZM442.896 58.7727H473.152V160.477C473.152 163.271 473.578 165.449 474.43 167.011C475.283 168.527 476.466 169.592 477.982 170.207C479.544 170.823 481.343 171.131 483.379 171.131C484.8 171.131 486.22 171.012 487.641 170.776C489.061 170.491 490.15 170.278 490.908 170.136L495.666 192.651C494.151 193.124 492.02 193.669 489.274 194.284C486.528 194.947 483.19 195.349 479.26 195.491C471.968 195.776 465.576 194.805 460.084 192.58C454.639 190.354 450.401 186.898 447.371 182.21C444.34 177.523 442.849 171.604 442.896 164.455V58.7727ZM545.986 130.932V194H515.73V48.5455H545.134V104.156H546.412C548.874 97.7169 552.851 92.6742 558.344 89.0284C563.836 85.3352 570.725 83.4886 579.011 83.4886C586.587 83.4886 593.192 85.1458 598.827 88.4602C604.509 91.7273 608.912 96.4384 612.037 102.594C615.209 108.702 616.772 116.017 616.724 124.54V194H586.469V129.938C586.516 123.214 584.812 117.982 581.355 114.241C577.946 110.501 573.164 108.631 567.009 108.631C562.889 108.631 559.243 109.507 556.071 111.259C552.946 113.01 550.484 115.567 548.685 118.929C546.933 122.243 546.033 126.244 545.986 130.932Z" fill="white"/>
<path d="M641.103 194V48.5455H737.41V73.9006H671.856V108.56H731.018V133.915H671.856V194H641.103ZM757.527 194V84.9091H787.783V194H757.527ZM772.726 70.8466C768.228 70.8466 764.369 69.3551 761.149 66.3722C757.977 63.3419 756.391 59.7197 756.391 55.5057C756.391 51.339 757.977 47.7642 761.149 44.7812C764.369 41.7509 768.228 40.2358 772.726 40.2358C777.224 40.2358 781.059 41.7509 784.232 44.7812C787.451 47.7642 789.061 51.339 789.061 55.5057C789.061 59.7197 787.451 63.3419 784.232 66.3722C781.059 69.3551 777.224 70.8466 772.726 70.8466ZM842.275 130.932V194H812.019V84.9091H840.854V104.156H842.133C844.548 97.8116 848.596 92.7926 854.278 89.0994C859.96 85.3589 866.849 83.4886 874.945 83.4886C882.521 83.4886 889.126 85.1458 894.761 88.4602C900.395 91.7746 904.775 96.5095 907.9 102.665C911.025 108.773 912.587 116.064 912.587 124.54V194H882.332V129.938C882.379 123.261 880.674 118.053 877.218 114.312C873.762 110.525 869.003 108.631 862.942 108.631C858.871 108.631 855.272 109.507 852.147 111.259C849.069 113.01 846.655 115.567 844.903 118.929C843.198 122.243 842.322 126.244 842.275 130.932ZM976.632 195.776C968.346 195.776 960.841 193.645 954.118 189.384C947.442 185.075 942.139 178.754 938.209 170.42C934.326 162.04 932.385 151.765 932.385 139.597C932.385 127.097 934.397 116.704 938.422 108.418C942.446 100.084 947.797 93.858 954.473 89.7386C961.196 85.572 968.559 83.4886 976.561 83.4886C982.669 83.4886 987.759 84.5303 991.831 86.6136C995.95 88.6496 999.265 91.2064 1001.77 94.2841C1004.33 97.3144 1006.27 100.297 1007.6 103.233H1008.52V48.5455H1038.71V194H1008.88V176.528H1007.6C1006.18 179.559 1004.17 182.565 1001.56 185.548C999.004 188.484 995.666 190.922 991.547 192.864C987.475 194.805 982.503 195.776 976.632 195.776ZM986.22 171.699C991.097 171.699 995.216 170.373 998.578 167.722C1001.99 165.023 1004.59 161.259 1006.39 156.429C1008.24 151.599 1009.16 145.941 1009.16 139.455C1009.16 132.968 1008.26 127.333 1006.46 122.551C1004.66 117.769 1002.06 114.076 998.649 111.472C995.24 108.867 991.097 107.565 986.22 107.565C981.249 107.565 977.058 108.915 973.649 111.614C970.24 114.312 967.66 118.053 965.908 122.835C964.156 127.617 963.28 133.157 963.28 139.455C963.28 145.799 964.156 151.41 965.908 156.287C967.707 161.116 970.287 164.904 973.649 167.651C977.058 170.349 981.249 171.699 986.22 171.699ZM1113.3 196.131C1102.08 196.131 1092.42 193.858 1084.32 189.312C1076.27 184.72 1070.07 178.233 1065.71 169.852C1061.36 161.424 1059.18 151.457 1059.18 139.952C1059.18 128.73 1061.36 118.882 1065.71 110.406C1070.07 101.931 1076.2 95.3258 1084.11 90.5909C1092.06 85.8561 1101.39 83.4886 1112.09 83.4886C1119.29 83.4886 1125.99 84.6487 1132.19 86.9688C1138.44 89.2415 1143.88 92.6742 1148.52 97.267C1153.21 101.86 1156.86 107.636 1159.46 114.597C1162.07 121.509 1163.37 129.606 1163.37 138.886V147.196H1071.25V128.446H1134.89C1134.89 124.09 1133.94 120.231 1132.05 116.869C1130.15 113.508 1127.53 110.88 1124.16 108.986C1120.85 107.045 1116.99 106.074 1112.59 106.074C1107.99 106.074 1103.92 107.139 1100.37 109.27C1096.87 111.353 1094.12 114.17 1092.13 117.722C1090.14 121.225 1089.13 125.132 1089.08 129.44V147.267C1089.08 152.665 1090.07 157.329 1092.06 161.259C1094.1 165.188 1096.96 168.219 1100.66 170.349C1104.35 172.48 1108.73 173.545 1113.79 173.545C1117.16 173.545 1120.23 173.072 1123.03 172.125C1125.82 171.178 1128.21 169.758 1130.2 167.864C1132.19 165.97 1133.7 163.65 1134.75 160.903L1162.73 162.75C1161.31 169.473 1158.4 175.345 1153.99 180.364C1149.64 185.335 1144 189.218 1137.09 192.011C1130.22 194.758 1122.29 196.131 1113.3 196.131ZM1183.11 194V84.9091H1212.45V103.943H1213.58C1215.57 97.1723 1218.91 92.0587 1223.6 88.6023C1228.28 85.0985 1233.68 83.3466 1239.79 83.3466C1241.3 83.3466 1242.94 83.4413 1244.69 83.6307C1246.44 83.8201 1247.98 84.0805 1249.31 84.4119V111.259C1247.89 110.832 1245.92 110.454 1243.41 110.122C1240.9 109.791 1238.61 109.625 1236.52 109.625C1232.07 109.625 1228.09 110.596 1224.59 112.537C1221.13 114.431 1218.39 117.082 1216.35 120.491C1214.36 123.901 1213.37 127.83 1213.37 132.281V194H1183.11Z" fill="#00FFD1"/>
<circle cx="77.5" cy="120.5" r="31.5" fill="#00FFD1"/>
<circle cx="77.5" cy="120.5" r="67.5" stroke="white" stroke-width="20"/>
</svg>
